<?xml version="1.0" encoding="UTF-8"?>
<!DOCTYPE svg PUBLIC "-//W3C//DTD SVG 1.1//EN" "http://www.w3.org/Graphics/SVG/1.1/DTD/svg11.dtd">
<svg xmlns="http://www.w3.org/2000/svg" version="1.1" width="250px" height="250px" style="shape-rendering:geometricPrecision; text-rendering:geometricPrecision; image-rendering:optimizeQuality; fill-rule:evenodd; clip-rule:evenodd" xmlns:xlink="http://www.w3.org/1999/xlink">
<g><path style="opacity:1" fill="#fefefe" d="M -0.5,-0.5 C 82.8333,-0.5 166.167,-0.5 249.5,-0.5C 249.5,82.8333 249.5,166.167 249.5,249.5C 166.167,249.5 82.8333,249.5 -0.5,249.5C -0.5,166.167 -0.5,82.8333 -0.5,-0.5 Z"/></g>
<g><path style="opacity:1" fill="#c85c94" d="M 156.5,55.5 C 154.665,54.8777 153.498,53.5444 153,51.5C 151.833,47.3333 150.667,43.1667 149.5,39C 149.743,38.0979 150.077,37.2646 150.5,36.5C 152.628,35.3709 154.961,35.2042 157.5,36C 165.553,42.8108 165.22,49.3108 156.5,55.5 Z"/></g>
<g><path style="opacity:1" fill="#e22382" d="M 194.5,71.5 C 192.907,70.6521 191.74,69.3187 191,67.5C 191.305,69.4432 191.305,71.4432 191,73.5C 188.476,68.2398 186.643,62.7398 185.5,57C 187.163,55.5054 188.163,53.672 188.5,51.5C 190.962,48.5361 193.629,45.7028 196.5,43C 209.322,42.1619 213.156,47.6619 208,59.5C 203.952,64.0505 199.452,68.0505 194.5,71.5 Z"/></g>
<g><path style="opacity:1" fill="#b3699c" d="M 138.5,47.5 C 138.674,50.8738 139.174,54.2072 140,57.5C 146.161,75.4724 151.661,93.3057 156.5,111C 160.296,121.742 163.63,132.575 166.5,143.5C 167.385,145.977 168.718,147.977 170.5,149.5C 169.833,150.833 168.833,151.833 167.5,152.5C 165.255,152.459 164.588,151.625 165.5,150C 163.511,145.379 161.511,140.712 159.5,136C 159.833,135.667 160.167,135.333 160.5,135C 156.979,124.234 153.313,113.567 149.5,103C 149.957,102.586 150.291,102.086 150.5,101.5C 146.674,94.2019 144.341,87.0352 143.5,80C 141.875,79.1475 141.542,78.1475 142.5,77C 141.484,75.3232 140.484,73.6565 139.5,72C 139.516,69.6822 139.516,67.3489 139.5,65C 137.534,61.4751 135.868,57.8084 134.5,54C 135.414,52.5936 136.08,51.0936 136.5,49.5C 136.833,48.5 137.5,47.8333 138.5,47.5 Z"/></g>
<g><path style="opacity:1" fill="#ad6e9f" d="M 136.5,49.5 C 136.08,51.0936 135.414,52.5936 134.5,54C 135.868,57.8084 137.534,61.4751 139.5,65C 139.516,67.3489 139.516,69.6822 139.5,72C 140.484,73.6565 141.484,75.3232 142.5,77C 141.542,78.1475 141.875,79.1475 143.5,80C 144.341,87.0352 146.674,94.2019 150.5,101.5C 150.291,102.086 149.957,102.586 149.5,103C 153.313,113.567 156.979,124.234 160.5,135C 160.167,135.333 159.833,135.667 159.5,136C 161.511,140.712 163.511,145.379 165.5,150C 164.588,151.625 165.255,152.459 167.5,152.5C 165.833,154.833 163.833,156.833 161.5,158.5C 158.891,158.17 157.224,156.67 156.5,154C 156.833,153.667 157.167,153.333 157.5,153C 153.69,142.176 149.857,131.009 146,119.5C 140.798,99.5666 134.631,80.0666 127.5,61C 128.582,59.6703 129.249,58.1703 129.5,56.5C 131.5,53.8333 133.833,51.5 136.5,49.5 Z"/></g>
<g><path style="opacity:1" fill="#d83a88" d="M 188.5,51.5 C 188.163,53.672 187.163,55.5054 185.5,57C 186.643,62.7398 188.476,68.2398 191,73.5C 191.305,71.4432 191.305,69.4432 191,67.5C 191.74,69.3187 192.907,70.6521 194.5,71.5C 192.833,73.8333 190.833,75.8333 188.5,77.5C 186.689,77.428 185.356,76.5947 184.5,75C 181.65,69.3707 180.983,63.5373 182.5,57.5C 184.167,55.1667 186.167,53.1667 188.5,51.5 Z"/></g>
<g><path style="opacity:1" fill="#a673a3" d="M 129.5,56.5 C 129.249,58.1703 128.582,59.6703 127.5,61C 134.631,80.0666 140.798,99.5666 146,119.5C 149.857,131.009 153.69,142.176 157.5,153C 157.167,153.333 156.833,153.667 156.5,154C 157.224,156.67 158.891,158.17 161.5,158.5C 159.833,160.833 157.833,162.833 155.5,164.5C 153.876,164.64 152.71,163.973 152,162.5C 149.302,154.739 146.802,146.906 144.5,139C 139.256,133.376 137.423,126.876 139,119.5C 133.754,103.086 128.421,86.4194 123,69.5C 122.505,67.5273 122.338,65.5273 122.5,63.5C 124.5,60.8333 126.833,58.5 129.5,56.5 Z"/></g>
<g><path style="opacity:1" fill="#9f77a7" d="M 122.5,63.5 C 122.338,65.5273 122.505,67.5273 123,69.5C 128.421,86.4194 133.754,103.086 139,119.5C 137.423,126.876 139.256,133.376 144.5,139C 146.802,146.906 149.302,154.739 152,162.5C 152.71,163.973 153.876,164.64 155.5,164.5C 153.5,167.167 151.167,169.5 148.5,171.5C 147.504,171.586 146.671,171.252 146,170.5C 140.424,149.545 134.424,128.545 128,107.5C 123.015,96.0823 119.515,84.749 117.5,73.5C 116.975,72.8076 116.308,72.3076 115.5,72C 116.823,71.1841 117.489,70.0174 117.5,68.5C 118.833,66.5 120.5,64.8333 122.5,63.5 Z"/></g>
<g><path style="opacity:1" fill="#cd4f8e" d="M 182.5,57.5 C 180.983,63.5373 181.65,69.3707 184.5,75C 185.356,76.5947 186.689,77.428 188.5,77.5C 184.264,82.614 179.597,87.2806 174.5,91.5C 171.823,88.0064 169.99,84.0064 169,79.5C 168.366,76.4453 168.532,73.4453 169.5,70.5C 173.5,65.8333 177.833,61.5 182.5,57.5 Z"/></g>
<g><path style="opacity:1" fill="#ba6499" d="M 150.5,36.5 C 150.077,37.2646 149.743,38.0979 149.5,39C 150.667,43.1667 151.833,47.3333 153,51.5C 153.498,53.5444 154.665,54.8777 156.5,55.5C 154.044,58.6084 152.044,61.9418 150.5,65.5C 150.686,69.0768 152.02,72.0768 154.5,74.5C 153.903,74.7352 153.57,75.2352 153.5,76C 156.52,85.7209 159.187,95.2209 161.5,104.5C 164.489,112.303 166.989,120.303 169,128.5C 171.6,133.753 173.767,139.086 175.5,144.5C 174.167,146.5 172.5,148.167 170.5,149.5C 168.718,147.977 167.385,145.977 166.5,143.5C 163.63,132.575 160.296,121.742 156.5,111C 151.661,93.3057 146.161,75.4724 140,57.5C 139.174,54.2072 138.674,50.8738 138.5,47.5C 141.895,43.1024 145.895,39.4357 150.5,36.5 Z"/></g>
<g><path style="opacity:1" fill="#e72986" d="M 206.5,69.5 C 214.167,68.024 218,71.024 218,78.5C 213.652,84.6746 208.985,85.0079 204,79.5C 203.024,75.673 203.857,72.3396 206.5,69.5 Z"/></g>
<g><path style="opacity:1" fill="#997caa" d="M 117.5,68.5 C 117.489,70.0174 116.823,71.1841 115.5,72C 116.308,72.3076 116.975,72.8076 117.5,73.5C 119.515,84.749 123.015,96.0823 128,107.5C 134.424,128.545 140.424,149.545 146,170.5C 146.671,171.252 147.504,171.586 148.5,171.5C 146.5,174.167 144.167,176.5 141.5,178.5C 132.237,144.364 121.904,110.531 110.5,77C 111.823,76.1841 112.489,75.0174 112.5,73.5C 113.833,71.5 115.5,69.8333 117.5,68.5 Z"/></g>
<g><path style="opacity:1" fill="#c05f96" d="M 169.5,70.5 C 168.532,73.4453 168.366,76.4453 169,79.5C 169.99,84.0064 171.823,88.0064 174.5,91.5C 173.165,93.797 171.332,95.797 169,97.5C 166.576,102.544 167.409,106.878 171.5,110.5C 171.611,111.117 171.944,111.617 172.5,112C 174.81,112.497 177.143,112.663 179.5,112.5C 178.791,113.404 177.791,113.737 176.5,113.5C 177.498,119.311 178.998,125.311 181,131.5C 181.74,133.319 182.907,134.652 184.5,135.5C 181.833,138.833 178.833,141.833 175.5,144.5C 173.767,139.086 171.6,133.753 169,128.5C 166.989,120.303 164.489,112.303 161.5,104.5C 159.187,95.2209 156.52,85.7209 153.5,76C 153.57,75.2352 153.903,74.7352 154.5,74.5C 160.401,76.4202 165.401,75.0869 169.5,70.5 Z"/></g>
<g><path style="opacity:1" fill="#927fad" d="M 112.5,73.5 C 112.489,75.0174 111.823,76.1841 110.5,77C 121.904,110.531 132.237,144.364 141.5,178.5C 141.167,179.5 140.5,180.167 139.5,180.5C 137.743,179.916 136.41,178.749 135.5,177C 126.824,148.097 117.991,119.263 109,90.5C 107.914,86.124 107.748,81.7906 108.5,77.5C 109.5,75.8333 110.833,74.5 112.5,73.5 Z"/></g>
<g><path style="opacity:1" fill="#8c82b0" d="M 108.5,77.5 C 107.748,81.7906 107.914,86.124 109,90.5C 117.991,119.263 126.824,148.097 135.5,177C 136.41,178.749 137.743,179.916 139.5,180.5C 139.027,181.906 138.027,182.573 136.5,182.5C 134.396,182.799 132.396,182.466 130.5,181.5C 130.709,180.914 131.043,180.414 131.5,180C 128.486,170.303 125.152,160.637 121.5,151C 121.957,150.586 122.291,150.086 122.5,149.5C 121.115,148.449 120.115,147.116 119.5,145.5C 119.587,143.297 119.587,141.13 119.5,139C 115.937,129.025 112.271,119.025 108.5,109C 109.022,108.439 109.355,107.772 109.5,107C 108.078,103.183 106.411,99.5167 104.5,96C 104.833,95.6667 105.167,95.3333 105.5,95C 103.731,92.731 103.065,90.3977 103.5,88C 102.833,87.3333 102.167,86.6667 101.5,86C 102.823,85.1841 103.489,84.0174 103.5,82.5C 104.833,80.5 106.5,78.8333 108.5,77.5 Z"/></g>
<g><path style="opacity:1" fill="#8786b3" d="M 103.5,82.5 C 103.489,84.0174 102.823,85.1841 101.5,86C 102.167,86.6667 102.833,87.3333 103.5,88C 103.065,90.3977 103.731,92.731 105.5,95C 105.167,95.3333 104.833,95.6667 104.5,96C 106.411,99.5167 108.078,103.183 109.5,107C 109.355,107.772 109.022,108.439 108.5,109C 112.271,119.025 115.937,129.025 119.5,139C 119.587,141.13 119.587,143.297 119.5,145.5C 120.115,147.116 121.115,148.449 122.5,149.5C 122.291,150.086 121.957,150.586 121.5,151C 125.152,160.637 128.486,170.303 131.5,180C 131.043,180.414 130.709,180.914 130.5,181.5C 132.396,182.466 134.396,182.799 136.5,182.5C 132.336,184.424 129.002,183.424 126.5,179.5C 117.544,152.017 109.044,124.35 101,96.5C 99.9164,95.3349 99.0831,94.0016 98.5,92.5C 99.5353,90.8716 99.5353,89.205 98.5,87.5C 99.8333,85.5 101.5,83.8333 103.5,82.5 Z"/></g>
<g><path style="opacity:1" fill="#7f88b5" d="M 98.5,87.5 C 99.5353,89.205 99.5353,90.8716 98.5,92.5C 99.0831,94.0016 99.9164,95.3349 101,96.5C 109.044,124.35 117.544,152.017 126.5,179.5C 125.005,179.011 123.671,178.345 122.5,177.5C 121.432,176.566 120.099,176.232 118.5,176.5C 111.66,152.575 104.66,129.075 97.5,106C 95.4294,101.699 94.0961,97.1993 93.5,92.5C 94.8333,90.5 96.5,88.8333 98.5,87.5 Z"/></g>
<g><path style="opacity:1" fill="#f0a8cb" d="M 206.5,98.5 C 203.133,97.2525 199.799,97.2525 196.5,98.5C 196.167,98.5 195.833,98.5 195.5,98.5C 195.611,97.8826 195.944,97.3826 196.5,97C 199.5,96.3333 202.5,96.3333 205.5,97C 206.056,97.3826 206.389,97.8826 206.5,98.5 Z"/></g>
<g><path style="opacity:1" fill="#768cb9" d="M 93.5,92.5 C 94.0961,97.1993 95.4294,101.699 97.5,106C 104.66,129.075 111.66,152.575 118.5,176.5C 120.099,176.232 121.432,176.566 122.5,177.5C 117.949,176.658 114.283,177.992 111.5,181.5C 103.169,154.187 94.8354,126.854 86.5,99.5C 88.5,96.8333 90.8333,94.5 93.5,92.5 Z"/></g>
<g><path style="opacity:1" fill="#dc3487" d="M 206.5,98.5 C 212.31,106.12 210.977,112.453 202.5,117.5C 201.503,117.53 200.836,117.03 200.5,116C 198.796,110.818 196.796,105.818 194.5,101C 195.381,100.292 196.047,99.4584 196.5,98.5C 199.799,97.2525 203.133,97.2525 206.5,98.5 Z"/></g>
<g><path style="opacity:1" fill="#6c90be" d="M 86.5,99.5 C 94.8354,126.854 103.169,154.187 111.5,181.5C 109.833,183.833 107.833,185.833 105.5,187.5C 100.845,174.538 96.1784,161.538 91.5,148.5C 95.1452,137.787 91.1452,132.787 79.5,133.5C 81.9686,132.683 84.6353,132.183 87.5,132C 84.7805,124.29 82.4472,116.457 80.5,108.5C 79.5,108.5 78.5,108.5 77.5,108.5C 80.1667,105.167 83.1667,102.167 86.5,99.5 Z"/></g>
<g><path style="opacity:1" fill="#d2448a" d="M 195.5,98.5 C 195.833,98.5 196.167,98.5 196.5,98.5C 196.047,99.4584 195.381,100.292 194.5,101C 196.796,105.818 198.796,110.818 200.5,116C 200.836,117.03 201.503,117.53 202.5,117.5C 199.833,120.833 196.833,123.833 193.5,126.5C 192.503,126.53 191.836,126.03 191.5,125C 190.271,119.683 188.604,114.516 186.5,109.5C 187.127,108.583 187.461,107.583 187.5,106.5C 189.833,103.5 192.5,100.833 195.5,98.5 Z"/></g>
<g><path style="opacity:1" fill="#ca5490" d="M 187.5,106.5 C 187.461,107.583 187.127,108.583 186.5,109.5C 188.604,114.516 190.271,119.683 191.5,125C 191.836,126.03 192.503,126.53 193.5,126.5C 190.833,129.833 187.833,132.833 184.5,135.5C 182.907,134.652 181.74,133.319 181,131.5C 178.998,125.311 177.498,119.311 176.5,113.5C 177.791,113.737 178.791,113.404 179.5,112.5C 180.167,112.5 180.5,112.167 180.5,111.5C 183.112,110.221 185.445,108.555 187.5,106.5 Z"/></g>
<g><path style="opacity:1" fill="#eac2d7" d="M 171.5,110.5 C 174.43,111.299 177.43,111.632 180.5,111.5C 180.5,112.167 180.167,112.5 179.5,112.5C 177.143,112.663 174.81,112.497 172.5,112C 171.944,111.617 171.611,111.117 171.5,110.5 Z"/></g>
<g><path style="opacity:1" fill="#5b95c2" d="M 77.5,108.5 C 78.5,108.5 79.5,108.5 80.5,108.5C 82.4472,116.457 84.7805,124.29 87.5,132C 84.6353,132.183 81.9686,132.683 79.5,133.5C 79.5,134.167 79.1667,134.5 78.5,134.5C 75.3801,128.142 73.0467,121.475 71.5,114.5C 73.1667,112.167 75.1667,110.167 77.5,108.5 Z"/></g>
<g><path style="opacity:1" fill="#399fcd" d="M 71.5,114.5 C 73.0467,121.475 75.3801,128.142 78.5,134.5C 73.3362,139.496 68.0028,144.329 62.5,149C 54.7486,150.198 50.4153,146.865 49.5,139C 49.6251,137.373 50.1251,135.873 51,134.5C 57.7018,127.631 64.5351,120.964 71.5,114.5 Z"/></g>
<g><path style="opacity:1" fill="#5d95c2" d="M 91.5,148.5 C 96.1784,161.538 100.845,174.538 105.5,187.5C 103.1,190.903 100.1,193.57 96.5,195.5C 92.029,183.085 88.3624,170.418 85.5,157.5C 84.5,157.5 83.5,157.5 82.5,157.5C 85.1667,154.167 88.1667,151.167 91.5,148.5 Z"/></g>
<g><path style="opacity:1" fill="#4c9cc8" d="M 82.5,157.5 C 83.5,157.5 84.5,157.5 85.5,157.5C 88.3624,170.418 92.029,183.085 96.5,195.5C 95.6661,196.748 94.3328,197.415 92.5,197.5C 88.8513,196.845 85.518,195.345 82.5,193C 79.4453,192.366 76.4453,192.532 73.5,193.5C 73.6107,192.883 73.944,192.383 74.5,192C 78.5478,191.566 82.5478,191.566 86.5,192C 83.4622,182.386 80.1289,172.886 76.5,163.5C 78.1667,161.167 80.1667,159.167 82.5,157.5 Z"/></g>
<g><path style="opacity:1" fill="#37a3d0" d="M 35.5,166.5 C 45.5197,166.211 48.1864,170.544 43.5,179.5C 35.414,181.913 31.5807,178.913 32,170.5C 33.3756,169.295 34.5423,167.962 35.5,166.5 Z"/></g>
<g><path style="opacity:1" fill="#2fa0cd" d="M 76.5,163.5 C 80.1289,172.886 83.4622,182.386 86.5,192C 82.5478,191.566 78.5478,191.566 74.5,192C 73.944,192.383 73.6107,192.883 73.5,193.5C 67.9485,198.217 62.9485,203.383 58.5,209C 49.3294,216.438 42.9961,214.605 39.5,203.5C 39.8988,201.803 40.3988,200.137 41,198.5C 52.7015,186.631 64.5349,174.965 76.5,163.5 Z"/></g>
</svg>
