<?xml version="1.0" encoding="UTF-8"?>
<!DOCTYPE svg PUBLIC "-//W3C//DTD SVG 1.1//EN" "http://www.w3.org/Graphics/SVG/1.1/DTD/svg11.dtd">
<svg xmlns="http://www.w3.org/2000/svg" version="1.1" width="250px" height="250px" style="shape-rendering:geometricPrecision; text-rendering:geometricPrecision; image-rendering:optimizeQuality; fill-rule:evenodd; clip-rule:evenodd" xmlns:xlink="http://www.w3.org/1999/xlink">
<g><path style="opacity:0.874" fill="#35d1fe" d="M 138.5,23.5 C 143.207,28.2046 147.54,33.2046 151.5,38.5C 145.32,36.5977 138.986,35.5977 132.5,35.5C 132.5,38.8333 132.5,42.1667 132.5,45.5C 124.146,39.1456 116.812,31.8122 110.5,23.5C 119.974,22.2354 129.308,22.2354 138.5,23.5 Z"/></g>
<g><path style="opacity:0.871" fill="#36d7fe" d="M 138.5,23.5 C 153.527,24.619 167.194,29.2856 179.5,37.5C 189.577,49.0801 200.243,60.2467 211.5,71C 212.094,71.4643 212.761,71.631 213.5,71.5C 221.445,83.9949 226.445,97.6616 228.5,112.5C 223.5,108.5 218.5,104.5 213.5,100.5C 203.199,69.5324 182.532,48.8658 151.5,38.5C 147.54,33.2046 143.207,28.2046 138.5,23.5 Z"/></g>
<g><path style="opacity:0.855" fill="#33c4fe" d="M 83.5,31.5 C 86.8333,34.5 90.1667,37.5 93.5,40.5C 87.0479,43.5599 80.7146,46.8932 74.5,50.5C 71.8333,47.5 69.1667,44.5 66.5,41.5C 71.6973,37.4001 77.364,34.0668 83.5,31.5 Z"/></g>
<g><path style="opacity:0.851" fill="#34cafe" d="M 110.5,23.5 C 116.812,31.8122 124.146,39.1456 132.5,45.5C 132.5,52.8333 132.5,60.1667 132.5,67.5C 157.4,71.5641 173.9,85.5641 182,109.5C 183.274,116.103 183.774,122.77 183.5,129.5C 179.227,126.566 175.227,123.233 171.5,119.5C 166.796,97.1037 153.13,84.1037 130.5,80.5C 130.611,79.8826 130.944,79.3826 131.5,79C 127.631,74.963 123.631,71.1296 119.5,67.5C 119.5,56.8333 119.5,46.1667 119.5,35.5C 110.571,35.8999 101.904,37.5666 93.5,40.5C 90.1667,37.5 86.8333,34.5 83.5,31.5C 91.9293,27.2492 100.929,24.5825 110.5,23.5 Z"/></g>
<g><path style="opacity:0.866" fill="#38dafe" d="M 179.5,37.5 C 181.795,38.4746 183.795,39.8079 185.5,41.5C 192.24,49.7448 199.573,57.5782 207.5,65C 208.094,65.4643 208.761,65.631 209.5,65.5C 211.192,67.2048 212.525,69.2048 213.5,71.5C 212.761,71.631 212.094,71.4643 211.5,71C 200.243,60.2467 189.577,49.0801 179.5,37.5 Z"/></g>
<g><path style="opacity:0.857" fill="#32bfff" d="M 66.5,41.5 C 69.1667,44.5 71.8333,47.5 74.5,50.5C 72.1215,52.8777 69.4549,54.8777 66.5,56.5C 63.5,53.8333 60.5,51.1667 57.5,48.5C 60.1897,45.8154 63.1897,43.4821 66.5,41.5 Z"/></g>
<g><path style="opacity:0.577" fill="#37dbfe" d="M 185.5,41.5 C 195.167,47.8333 203.167,55.8333 209.5,65.5C 208.761,65.631 208.094,65.4643 207.5,65C 199.573,57.5782 192.24,49.7448 185.5,41.5 Z"/></g>
<g><path style="opacity:0.851" fill="#32bcfe" d="M 57.5,48.5 C 60.5,51.1667 63.5,53.8333 66.5,56.5C 65.1667,58.5 63.5,60.1667 61.5,61.5C 58.8333,58.5 56.1667,55.5 53.5,52.5C 54.5,50.8333 55.8333,49.5 57.5,48.5 Z"/></g>
<g><path style="opacity:0.852" fill="#31bafe" d="M 53.5,52.5 C 56.1667,55.5 58.8333,58.5 61.5,61.5C 60.1363,63.1911 58.803,64.8577 57.5,66.5C 54.1667,63.8333 51.1667,60.8333 48.5,57.5C 49.8333,55.5 51.5,53.8333 53.5,52.5 Z"/></g>
<g><path style="opacity:0.856" fill="#32b8fe" d="M 48.5,57.5 C 51.1667,60.8333 54.1667,63.8333 57.5,66.5C 56.1667,68.1667 54.8333,69.8333 53.5,71.5C 50.1667,68.8333 47.1667,65.8333 44.5,62.5C 45.8637,60.8089 47.197,59.1423 48.5,57.5 Z"/></g>
<g><path style="opacity:0.863" fill="#31b6fe" d="M 44.5,62.5 C 47.1667,65.8333 50.1667,68.8333 53.5,71.5C 51.7745,73.2279 50.4411,75.2279 49.5,77.5C 46.1667,74.8333 43.1667,71.8333 40.5,68.5C 41.4746,66.2048 42.8079,64.2048 44.5,62.5 Z"/></g>
<g><path style="opacity:0.845" fill="#33c4fe" d="M 119.5,67.5 C 123.631,71.1296 127.631,74.963 131.5,79C 130.944,79.3826 130.611,79.8826 130.5,80.5C 122.652,79.5249 114.985,80.5249 107.5,83.5C 104.833,80.1667 101.833,77.1667 98.5,74.5C 104.962,70.7802 111.962,68.4468 119.5,67.5 Z"/></g>
<g><path style="opacity:0.851" fill="#31b4fe" d="M 40.5,68.5 C 43.1667,71.8333 46.1667,74.8333 49.5,77.5C 48.8333,78.5 48.1667,79.5 47.5,80.5C 44.4362,77.4297 41.1029,74.7631 37.5,72.5C 38.5116,71.1283 39.5116,69.795 40.5,68.5 Z"/></g>
<g><path style="opacity:0.869" fill="#30b1fe" d="M 37.5,72.5 C 41.1029,74.7631 44.4362,77.4297 47.5,80.5C 43.8529,86.7745 41.1863,93.4412 39.5,100.5C 35.8333,97.5 32.5,94.1667 29.5,90.5C 31.62,84.2598 34.2866,78.2598 37.5,72.5 Z"/></g>
<g><path style="opacity:0.87" fill="#32bfff" d="M 98.5,74.5 C 101.833,77.1667 104.833,80.1667 107.5,83.5C 104.634,85.4325 101.634,87.0991 98.5,88.5C 95.5,85.8333 92.5,83.1667 89.5,80.5C 91.9464,77.7693 94.9464,75.7693 98.5,74.5 Z"/></g>
<g><path style="opacity:0.848" fill="#32bcfe" d="M 89.5,80.5 C 92.5,83.1667 95.5,85.8333 98.5,88.5C 97.1667,90.5 95.5,92.1667 93.5,93.5C 90.8333,90.5 88.1667,87.5 85.5,84.5C 86.326,82.7356 87.6593,81.4023 89.5,80.5 Z"/></g>
<g><path style="opacity:0.848" fill="#32bafe" d="M 85.5,84.5 C 88.1667,87.5 90.8333,90.5 93.5,93.5C 92.5,95.1667 91.1667,96.5 89.5,97.5C 85.8998,95.5698 82.8998,92.9031 80.5,89.5C 81.8333,87.5 83.5,85.8333 85.5,84.5 Z"/></g>
<g><path style="opacity:0.841" fill="#32b8fe" d="M 80.5,89.5 C 82.8998,92.9031 85.8998,95.5698 89.5,97.5C 88.6597,99.8525 87.3264,101.853 85.5,103.5C 82.5,100.833 79.5,98.1667 76.5,95.5C 77.4746,93.2048 78.8079,91.2048 80.5,89.5 Z"/></g>
<g><path style="opacity:0.862" fill="#2fabff" d="M 29.5,90.5 C 32.5,94.1667 35.8333,97.5 39.5,100.5C 37.3338,108.324 36.0005,116.324 35.5,124.5C 31.7921,120.79 27.7921,117.457 23.5,114.5C 24.6266,106.175 26.6266,98.1755 29.5,90.5 Z"/></g>
<g><path style="opacity:0.825" fill="#31b6fe" d="M 76.5,95.5 C 79.5,98.1667 82.5,100.833 85.5,103.5C 85.0198,106.443 84.0198,109.11 82.5,111.5C 79.7689,107.766 76.4356,104.766 72.5,102.5C 73.5957,99.9684 74.9291,97.6351 76.5,95.5 Z"/></g>
<g><path style="opacity:0.875" fill="#35d1fe" d="M 213.5,100.5 C 218.5,104.5 223.5,108.5 228.5,112.5C 228.78,121.886 228.447,131.22 227.5,140.5C 223.562,137.902 219.895,134.902 216.5,131.5C 216.451,121.062 215.451,110.728 213.5,100.5 Z"/></g>
<g><path style="opacity:0.86" fill="#30b1fe" d="M 72.5,102.5 C 76.4356,104.766 79.7689,107.766 82.5,111.5C 81.5124,115.941 80.8458,120.441 80.5,125C 81.0427,132.454 82.7094,139.621 85.5,146.5C 80.1104,141.106 74.4437,136.106 68.5,131.5C 67.6543,121.496 68.9876,111.829 72.5,102.5 Z"/></g>
<g><path style="opacity:0.855" fill="#2ea5fe" d="M 23.5,114.5 C 27.7921,117.457 31.7921,120.79 35.5,124.5C 36.0878,134.694 37.7545,144.694 40.5,154.5C 35.4431,149.438 30.1098,144.772 24.5,140.5C 23.5579,131.887 23.2246,123.221 23.5,114.5 Z"/></g>
<g><path style="opacity:0.856" fill="#33c4fe" d="M 171.5,119.5 C 175.227,123.233 179.227,126.566 183.5,129.5C 183.355,137.929 181.021,145.595 176.5,152.5C 173.833,149.167 170.833,146.167 167.5,143.5C 170.556,135.83 171.889,127.83 171.5,119.5 Z"/></g>
<g><path style="opacity:0.855" fill="#2facff" d="M 68.5,131.5 C 74.4437,136.106 80.1104,141.106 85.5,146.5C 88.1474,149.764 90.8141,153.097 93.5,156.5C 97.0532,159.758 100.72,162.758 104.5,165.5C 109.894,170.89 114.894,176.556 119.5,182.5C 95.3569,178.858 79.1902,165.525 71,142.5C 70.0051,138.855 69.1717,135.188 68.5,131.5 Z"/></g>
<g><path style="opacity:0.849" fill="#34cbfe" d="M 216.5,131.5 C 219.895,134.902 223.562,137.902 227.5,140.5C 226.617,149.809 223.95,158.476 219.5,166.5C 216.167,163.833 213.167,160.833 210.5,157.5C 213.163,148.857 215.163,140.191 216.5,131.5 Z"/></g>
<g><path style="opacity:0.852" fill="#2d9ffe" d="M 24.5,140.5 C 30.1098,144.772 35.4431,149.438 40.5,154.5C 50.9458,181.946 69.9458,200.613 97.5,210.5C 101.833,215.833 106.167,221.167 110.5,226.5C 62.8663,216.866 34.1996,188.2 24.5,140.5 Z"/></g>
<g><path style="opacity:0.86" fill="#33bfff" d="M 167.5,143.5 C 170.833,146.167 173.833,149.167 176.5,152.5C 175.241,156.025 173.241,159.025 170.5,161.5C 167.833,158.5 165.167,155.5 162.5,152.5C 164.42,149.661 166.087,146.661 167.5,143.5 Z"/></g>
<g><path style="opacity:0.866" fill="#32bcfe" d="M 162.5,152.5 C 165.167,155.5 167.833,158.5 170.5,161.5C 169.5,163.167 168.167,164.5 166.5,165.5C 163.5,162.833 160.5,160.167 157.5,157.5C 158.833,155.5 160.5,153.833 162.5,152.5 Z"/></g>
<g><path style="opacity:0.846" fill="#32bafe" d="M 157.5,157.5 C 160.5,160.167 163.5,162.833 166.5,165.5C 165.167,167.5 163.5,169.167 161.5,170.5C 158.167,167.833 155.167,164.833 152.5,161.5C 154.167,160.167 155.833,158.833 157.5,157.5 Z"/></g>
<g><path style="opacity:0.858" fill="#33c4fe" d="M 210.5,157.5 C 213.167,160.833 216.167,163.833 219.5,166.5C 217.192,173.121 213.858,179.121 209.5,184.5C 206.5,181.833 203.5,179.167 200.5,176.5C 204.12,170.259 207.453,163.925 210.5,157.5 Z"/></g>
<g><path style="opacity:0.851" fill="#32b8fe" d="M 152.5,161.5 C 155.167,164.833 158.167,167.833 161.5,170.5C 159.795,172.192 157.795,173.525 155.5,174.5C 152.833,171.5 150.167,168.5 147.5,165.5C 148.945,163.937 150.611,162.604 152.5,161.5 Z"/></g>
<g><path style="opacity:0.864" fill="#30b1fe" d="M 104.5,165.5 C 111.406,168.116 118.572,169.782 126,170.5C 130.852,169.911 135.686,169.244 140.5,168.5C 143.167,171.833 146.167,174.833 149.5,177.5C 144.256,180.232 138.589,181.899 132.5,182.5C 132.5,185.833 132.5,189.167 132.5,192.5C 128.167,189.167 123.833,185.833 119.5,182.5C 114.894,176.556 109.894,170.89 104.5,165.5 Z"/></g>
<g><path style="opacity:0.84" fill="#31b6fe" d="M 147.5,165.5 C 150.167,168.5 152.833,171.5 155.5,174.5C 153.819,176.008 151.819,177.008 149.5,177.5C 146.167,174.833 143.167,171.833 140.5,168.5C 142.509,166.935 144.843,165.935 147.5,165.5 Z"/></g>
<g><path style="opacity:0.852" fill="#32bfff" d="M 200.5,176.5 C 203.5,179.167 206.5,181.833 209.5,184.5C 207.518,187.81 205.185,190.81 202.5,193.5C 199.833,190.5 197.167,187.5 194.5,184.5C 196.147,181.527 198.147,178.86 200.5,176.5 Z"/></g>
<g><path style="opacity:0.844" fill="#2fabff" d="M 119.5,182.5 C 123.833,185.833 128.167,189.167 132.5,192.5C 132.169,200.196 132.503,207.862 133.5,215.5C 139.221,214.271 144.888,212.937 150.5,211.5C 153.902,214.895 156.902,218.562 159.5,222.5C 151.981,224.804 144.314,226.471 136.5,227.5C 131.833,220.833 126.167,215.167 119.5,210.5C 119.5,201.167 119.5,191.833 119.5,182.5 Z"/></g>
<g><path style="opacity:0.853" fill="#32bcfe" d="M 194.5,184.5 C 197.167,187.5 199.833,190.5 202.5,193.5C 201.5,195.167 200.167,196.5 198.5,197.5C 195.5,194.833 192.5,192.167 189.5,189.5C 190.833,187.5 192.5,185.833 194.5,184.5 Z"/></g>
<g><path style="opacity:0.847" fill="#32bafe" d="M 189.5,189.5 C 192.5,192.167 195.5,194.833 198.5,197.5C 197.167,199.5 195.5,201.167 193.5,202.5C 190.167,199.833 187.167,196.833 184.5,193.5C 186.167,192.167 187.833,190.833 189.5,189.5 Z"/></g>
<g><path style="opacity:0.843" fill="#31b8fe" d="M 184.5,193.5 C 187.167,196.833 190.167,199.833 193.5,202.5C 191.858,203.803 190.191,205.136 188.5,206.5C 185.167,203.833 182.167,200.833 179.5,197.5C 181.167,196.167 182.833,194.833 184.5,193.5 Z"/></g>
<g><path style="opacity:0.849" fill="#31b6fe" d="M 179.5,197.5 C 182.167,200.833 185.167,203.833 188.5,206.5C 186.777,208.218 184.777,209.551 182.5,210.5C 179.167,207.833 176.167,204.833 173.5,201.5C 175.5,200.167 177.5,198.833 179.5,197.5 Z"/></g>
<g><path style="opacity:0.851" fill="#31b4fe" d="M 173.5,201.5 C 176.167,204.833 179.167,207.833 182.5,210.5C 181.564,211.974 180.23,212.974 178.5,213.5C 176.237,209.897 173.57,206.564 170.5,203.5C 171.5,202.833 172.5,202.167 173.5,201.5 Z"/></g>
<g><path style="opacity:0.847" fill="#30b1fe" d="M 170.5,203.5 C 173.57,206.564 176.237,209.897 178.5,213.5C 172.458,217.072 166.125,220.072 159.5,222.5C 156.902,218.562 153.902,214.895 150.5,211.5C 157.559,209.814 164.225,207.147 170.5,203.5 Z"/></g>
<g><path style="opacity:0.866" fill="#2ea5fe" d="M 97.5,210.5 C 104.597,212.543 111.764,214.21 119,215.5C 119.494,213.866 119.66,212.199 119.5,210.5C 126.167,215.167 131.833,220.833 136.5,227.5C 127.779,227.775 119.113,227.442 110.5,226.5C 106.167,221.167 101.833,215.833 97.5,210.5 Z"/></g>
</svg>
