<svg width="32" height="32" viewBox="0 0 32 32" fill="none" xmlns="http://www.w3.org/2000/svg">
<path d="M4.5 16C4.5 9.64873 9.64873 4.5 16 4.5C22.3513 4.5 27.5 9.64873 27.5 16C27.5 22.3513 22.3513 27.5 16 27.5C9.64873 27.5 4.5 22.3513 4.5 16Z" stroke="#DFDFDF"/>
<g clip-path="url(#clip0_1663_3527)">
<path d="M16 32C24.8667 32 32 24.8667 32 16C32 7.13328 24.8667 0 16 0C7.13328 0 0 7.13328 0 16C0 24.8667 7.13328 32 16 32Z" fill="white"/>
<path fill-rule="evenodd" clip-rule="evenodd" d="M7.37891 5.8258V21.3147C7.37908 21.604 7.44407 21.8896 7.56906 22.1503C7.69405 22.4111 7.87586 22.6403 8.10101 22.8211L15.3824 28.6826C15.6386 28.8883 15.9569 29.0003 16.2851 29.0003C16.6132 29.0003 16.9316 28.8883 17.1877 28.6826L24.4691 22.8211C24.6943 22.6403 24.8761 22.4111 25.0011 22.1503C25.1261 21.8896 25.191 21.604 25.1912 21.3147V5.8258C25.1912 5.31363 24.9883 4.82238 24.6272 4.4602C24.266 4.09801 23.7763 3.89453 23.2655 3.89453H9.30453C8.79385 3.89453 8.30403 4.09801 7.94294 4.4602C7.58179 4.82238 7.37891 5.31363 7.37891 5.8258Z" fill="#1273EA"/>
<path d="M22.3009 12.5849V8.72234C22.3009 8.21011 22.0981 7.71887 21.7369 7.35668C21.3758 6.9945 20.886 6.79102 20.3753 6.79102H12.1913C11.6805 6.79102 11.1908 6.9945 10.8296 7.35668C10.4685 7.71887 10.2656 8.21011 10.2656 8.72234V19.9298C10.2658 20.2191 10.3308 20.5047 10.4557 20.7654C10.5807 21.0261 10.7625 21.2554 10.9878 21.4362L13.9677 23.8358C14.0031 23.8646 14.0458 23.8827 14.0911 23.8881C14.1363 23.8935 14.1821 23.8858 14.2232 23.8661C14.2643 23.8464 14.299 23.8154 14.3232 23.7767C14.3474 23.738 14.3602 23.6932 14.36 23.6475V15.7232C14.36 15.6592 14.3854 15.5978 14.4306 15.5525C14.4757 15.5072 14.5369 15.4818 14.6007 15.4818H16.7671C17.1501 15.4818 17.5175 15.6344 17.7883 15.9061C18.0592 16.1777 18.2113 16.5461 18.2113 16.9302V23.6475C18.2114 23.693 18.2242 23.7375 18.2484 23.776C18.2725 23.8145 18.307 23.8453 18.3479 23.865C18.3888 23.8847 18.4344 23.8924 18.4794 23.8872C18.5244 23.882 18.5671 23.8642 18.6025 23.8358L21.5825 21.4362C21.8076 21.2554 21.9894 21.0261 22.1144 20.7654C22.2394 20.5047 22.3044 20.2191 22.3045 19.9298V16.4474C22.3045 15.9353 22.1017 15.444 21.7405 15.0818C21.3794 14.7196 20.8896 14.5162 20.3789 14.5162C20.889 14.5152 21.3779 14.3113 21.7382 13.9492C22.0986 13.5872 22.3009 13.0965 22.3009 12.5849ZM16.7647 13.5505H14.5983C14.5345 13.5505 14.4733 13.5251 14.4281 13.4798C14.383 13.4345 14.3576 13.3731 14.3576 13.3091V8.96372C14.3576 8.89968 14.383 8.83827 14.4281 8.79304C14.4733 8.74774 14.5345 8.72234 14.5983 8.72234H17.9682C18.032 8.72234 18.0933 8.74774 18.1385 8.79304C18.1836 8.83827 18.2089 8.89968 18.2089 8.96372V12.1021C18.2089 12.4862 18.0568 12.8546 17.7859 13.1263C17.5151 13.3979 17.1477 13.5505 16.7647 13.5505Z" fill="white"/>
</g>
<defs>
<clipPath id="clip0_1663_3527">
<rect width="32" height="32" fill="white"/>
</clipPath>
</defs>
</svg>
